<svg width="103" height="35" viewBox="0 0 103 35" fill="none" xmlns="http://www.w3.org/2000/svg">
<path d="M26.6896 28.4319V31.3312C27.489 31.1873 28.2274 30.8537 28.8625 30.3759L26.9297 28.3258C26.8515 28.3651 26.7716 28.4008 26.6896 28.4319ZM25.7951 24.9367C25.3554 24.9367 24.9989 25.3148 24.9989 25.7812C24.9989 26.2476 25.3554 26.6257 25.7951 26.6257C26.2349 26.6257 26.5914 26.2476 26.5914 25.7812C26.5914 25.3148 26.2349 24.9367 25.7951 24.9367ZM25.7951 27.3332C25.6088 27.3332 25.4576 27.4935 25.4576 27.6911C25.4576 27.8888 25.6087 28.049 25.7951 28.049C25.9815 28.049 26.1326 27.8888 26.1326 27.6911C26.1326 27.4935 25.9815 27.3332 25.7951 27.3332ZM28.1947 26.9846L30.1275 29.0346C30.5782 28.361 30.8925 27.5776 31.0281 26.7298H28.2943C28.2648 26.8167 28.2318 26.902 28.1947 26.9846ZM28.1944 24.5779C28.2314 24.6607 28.2649 24.7456 28.2943 24.8325H31.028C30.8923 23.9847 30.5778 23.2015 30.1273 22.5278L28.1944 24.5779ZM24.6608 23.2366C24.7389 23.1974 24.8188 23.1617 24.9009 23.1306V20.2313C24.1015 20.3752 23.3632 20.7088 22.7279 21.1866L24.6608 23.2366ZM23.296 26.7298H20.5623C20.6979 27.5777 21.0123 28.361 21.4629 29.0345L23.3959 26.9844C23.3589 26.9017 23.3253 26.8167 23.296 26.7298ZM27.2586 25.7811C27.2586 25.9787 27.4097 26.139 27.596 26.139C27.7824 26.139 27.9335 25.9787 27.9335 25.7811C27.9335 25.5834 27.7824 25.4232 27.596 25.4232C27.4097 25.4232 27.2586 25.5834 27.2586 25.7811ZM28.8626 21.1864C28.2274 20.7085 27.489 20.3751 26.6896 20.2312V23.1305C26.7716 23.1616 26.8516 23.1971 26.9297 23.2363L28.8626 21.1864ZM25.7951 24.229C25.9815 24.229 26.1326 24.0687 26.1326 23.8711C26.1326 23.6734 25.9815 23.5131 25.7951 23.5131C25.6088 23.5131 25.4576 23.6734 25.4576 23.8711C25.4576 24.0687 25.6088 24.229 25.7951 24.229ZM25.7951 16.5624C20.9947 16.5624 17.1031 20.6898 17.1031 25.7812C17.1031 30.8726 20.9947 35 25.7951 35C30.5956 35 34.4872 30.8726 34.4872 25.7812C34.4872 20.6898 30.5956 16.5624 25.7951 16.5624ZM25.7951 32.366C22.3663 32.366 19.5865 29.4179 19.5865 25.7812C19.5865 22.1445 22.3662 19.1964 25.7951 19.1964C29.224 19.1964 32.0037 22.1445 32.0037 25.7812C32.0037 29.4179 29.224 32.366 25.7951 32.366ZM22.7276 30.3762C23.3628 30.854 24.1014 31.1874 24.9008 31.3314V28.4321C24.8187 28.4009 24.7387 28.3654 24.6605 28.3262L22.7276 30.3762ZM23.3956 24.5777L21.4628 22.5277C21.0121 23.2015 20.6978 23.9848 20.5621 24.8325H23.2961C23.3256 24.7456 23.3586 24.6606 23.3956 24.5777ZM24.3317 25.7811C24.3317 25.5834 24.1806 25.4232 23.9943 25.4232C23.8079 25.4232 23.6568 25.5834 23.6568 25.7811C23.6568 25.9787 23.8079 26.139 23.9943 26.139C24.1807 26.139 24.3317 25.9789 24.3317 25.7811ZM77.7893 24.5777L75.8564 22.5277C75.4056 23.2015 75.0913 23.9848 74.9557 24.8325H77.6896C77.7191 24.7456 77.7521 24.6606 77.7893 24.5777ZM82.5883 26.9846L84.5211 29.0346C84.9718 28.361 85.2861 27.5776 85.4218 26.7298H82.6879C82.6583 26.8167 82.6253 26.902 82.5883 26.9846ZM82.5881 24.5779C82.625 24.6607 82.6586 24.7456 82.6879 24.8325H85.4216C85.286 23.9847 84.9715 23.2015 84.5209 22.5278L82.5881 24.5779ZM81.0831 28.4319V31.3312C81.8825 31.1873 82.6209 30.8537 83.256 30.3759L81.3231 28.3258C81.245 28.3651 81.1651 28.4008 81.0831 28.4319ZM80.1886 24.9367C79.7489 24.9367 79.3924 25.3148 79.3924 25.7812C79.3924 26.2476 79.7489 26.6257 80.1886 26.6257C80.6284 26.6257 80.9849 26.2476 80.9849 25.7812C80.9849 25.3148 80.6284 24.9367 80.1886 24.9367ZM80.1886 16.5624C75.3882 16.5624 71.4968 20.6898 71.4968 25.7812C71.4968 30.8726 75.3883 35 80.1886 35C84.9892 35 88.8807 30.8726 88.8807 25.7812C88.8807 20.6898 84.9892 16.5624 80.1886 16.5624ZM80.1886 32.366C76.7598 32.366 73.9801 29.4179 73.9801 25.7812C73.9801 22.1445 76.7598 19.1964 80.1886 19.1964C83.6175 19.1964 86.3972 22.1445 86.3972 25.7812C86.3972 29.4179 83.6175 32.366 80.1886 32.366ZM102.079 23.196C102.262 23.3406 100.325 20.9137 99.1138 19.9981C97.1435 18.5086 81.0317 11.5601 69.4073 10.09C70.1872 10.1887 67.3698 10.0717 66.6394 9.51341C66.0813 9.08685 65.6434 8.43829 65.1071 7.99316C63.463 6.62875 58.2468 2.06676 55.5673 0.444056C55.2815 0.270998 54.8089 0.219216 54.5294 0.129428C54.3759 0.080229 53.2396 0.113192 53.5409 0.129428C48.4052 -0.148055 41.191 -0.0912309 35.8455 1.44009C35.3574 1.57994 32.3237 2.43502 30.2107 3.32737C29.5469 3.60756 28.7928 3.82022 27.9864 4.16609C25.6656 5.16151 23.5395 6.03418 21.3135 7.1018C19.9893 7.73708 17.7537 8.88231 18.0513 8.83176C17.8645 8.86337 17.6672 8.57236 17.3593 8.67457C16.7037 8.89203 16.0223 9.47614 15.4316 9.6706C14.9615 9.82546 12.5075 9.67318 11.7739 8.77936C10.9956 7.83129 10.7538 8.40938 9.45067 8.20275C10.5433 8.37593 1.68514 7.61002 1.39383 7.78333C0.478712 7.64803 0.999181 8.31209 0.99837 8.41234C1.26498 8.70667 1.43035 9.10875 1.73976 9.35597C2.82894 10.2262 5.84078 13.4401 6.04013 13.6547C6.39395 14.036 6.65187 14.5604 7.07806 14.8606C7.06159 14.913 7.04512 14.9654 7.02865 15.0178C6.40706 15.2146 6.04257 15.8938 5.54587 16.2235C4.59898 16.8522 3.87162 17.7401 3.56871 19.0545C3.56871 19.8233 3.56871 20.5924 3.56871 21.3612C2.69697 21.393 1.80505 21.67 1.04789 21.8855C0.579025 22.0188 0.12489 21.8437 0.10877 22.4621C-0.100206 22.8561 0.0555399 24.8164 0.0593669 25.4502C0.83984 25.979 1.71355 26.4942 2.58019 26.9705C5.00569 28.3035 4.2113 29.5918 4.2113 29.5918H16.9454V25.2139C16.9454 20.2919 20.7075 16.3019 25.3483 16.3019H26.1725C30.8132 16.3019 34.5754 20.2919 34.5754 25.2139V29.5918H71.3164V25.2139C71.3164 20.2919 75.0785 16.3019 79.7193 16.3019H80.6916C85.3325 16.3019 89.0945 20.2919 89.0945 25.2139V29.5918H93.4296C93.4296 29.5918 98.826 29.5394 101.536 29.5393C101.784 29.3021 102.267 29.0015 101.387 28.1238C101.8 28.5359 102.025 26.0081 101.931 24.4017C101.964 24.4017 101.997 24.4017 102.03 24.4017C102.732 23.9543 102.802 23.7669 102.079 23.196ZM38.3582 11.0337C38.3279 11.0337 38.2978 11.0337 38.2674 11.0337C38.1635 11.1038 37.7079 11.0845 37.7395 11.0848C34.9171 10.9718 29.6678 11.4273 26.0092 10.3521C25.914 10.2281 25.8914 9.97318 25.9103 9.93271C26.1295 8.9855 27.5985 8.60003 28.4311 8.15035C29.3993 7.62749 34.6936 5.38118 36.3396 5.10973C37.0687 7.12627 38.2443 10.792 38.3582 11.0337C38.3609 11.0337 38.3637 11.0337 38.3662 11.0337C38.369 11.051 38.366 11.0503 38.3582 11.0337ZM54.8754 11.1385C54.8754 11.1559 54.8754 11.1909 54.8754 11.1909H39.602C39.602 11.1909 38.1333 6.49124 37.4766 5.00481C37.5639 4.9545 37.5598 4.93888 37.6743 4.89989C41.3455 3.06833 48.9258 3.3238 51.5637 3.43204C52.4303 5.1235 53.1439 6.93538 53.8868 8.72684C54.1653 9.39841 54.853 10.3664 54.9249 11.1383C54.9083 11.1385 54.8918 11.1385 54.8754 11.1385ZM60.6585 11.1647C58.5363 11.1647 57.28 11.1476 55.5673 11.1385C54.2659 7.90805 52.7836 5.19927 52.3051 3.58935C52.3814 3.45098 52.4966 3.47496 52.7005 3.48443C52.7748 3.44901 52.9513 3.48296 53.1453 3.48443C54.1656 3.49206 54.3772 4.27925 55.0237 4.79497C55.7474 5.37245 56.3185 6.11302 56.9513 6.78704C58.0018 7.9062 58.9026 8.80052 59.9664 10.0374C60.2146 10.3258 60.3907 10.6628 60.6585 10.9286C60.6585 10.9811 60.6585 11.1123 60.6585 11.1647ZM65.4036 10.4045C65.0387 10.5204 64.6953 10.488 64.3656 10.6142C64.3004 9.92471 63.777 8.57851 63.1793 8.51725C63.0545 8.42058 61.4519 8.30889 61.2516 8.41234C61.1297 8.47629 61.1754 8.50507 61.0538 8.56965C61.3408 8.95303 59.9839 7.86942 55.7651 2.69811C55.682 2.59639 55.4001 2.42395 55.5179 2.27881C55.6431 2.01806 56.3147 1.77268 56.6548 1.75447C62.2682 5.94783 64.3961 7.92785 66.6394 9.98511C66.2421 10.0819 65.7859 10.2831 65.4036 10.4045ZM37.7395 11.0848C37.7505 11.0853 37.7622 11.0856 37.7731 11.0861C37.7531 11.0852 37.7433 11.085 37.7395 11.0848ZM77.6894 26.7298H74.9558C75.0913 27.5777 75.4058 28.361 75.8564 29.0345L77.7894 26.9844C77.7523 26.9017 77.7187 26.8167 77.6894 26.7298ZM80.1886 24.229C80.375 24.229 80.5261 24.0687 80.5261 23.8711C80.5261 23.6734 80.375 23.5131 80.1886 23.5131C80.0023 23.5131 79.8512 23.6734 79.8512 23.8711C79.8512 24.0687 80.0023 24.229 80.1886 24.229ZM83.256 21.1864C82.6209 20.7085 81.8824 20.3751 81.0831 20.2312V23.1305C81.1651 23.1616 81.2451 23.1971 81.3232 23.2363L83.256 21.1864ZM81.6521 25.7811C81.6521 25.9787 81.8032 26.139 81.9895 26.139C82.1759 26.139 82.327 25.9787 82.327 25.7811C82.327 25.5834 82.1759 25.4232 81.9895 25.4232C81.8032 25.4232 81.6521 25.5834 81.6521 25.7811ZM78.7252 25.7811C78.7252 25.5834 78.5741 25.4232 78.3878 25.4232C78.2015 25.4232 78.0503 25.5834 78.0503 25.7811C78.0503 25.9787 78.2015 26.139 78.3878 26.139C78.5741 26.139 78.7252 25.9789 78.7252 25.7811ZM79.0544 23.2366C79.1324 23.1974 79.2123 23.1617 79.2943 23.1306V20.2313C78.4949 20.3752 77.7565 20.7088 77.1214 21.1866L79.0544 23.2366ZM80.1886 27.3332C80.0023 27.3332 79.8512 27.4935 79.8512 27.6911C79.8512 27.8888 80.0023 28.049 80.1886 28.049C80.375 28.049 80.5261 27.8888 80.5261 27.6911C80.5261 27.4935 80.3751 27.3332 80.1886 27.3332ZM77.1211 30.3762C77.7564 30.854 78.4949 31.1874 79.2943 31.3314V28.4321C79.2123 28.4009 79.1322 28.3654 79.0541 28.3262L77.1211 30.3762Z"/>
</svg>
